<?xml version="1.0" standalone="no"?>
<!DOCTYPE svg PUBLIC "-//W3C//DTD SVG 20010904//EN"
 "http://www.w3.org/TR/2001/REC-SVG-20010904/DTD/svg10.dtd">
<svg version="1.0" xmlns="http://www.w3.org/2000/svg"
 width="500.000000pt" height="500.000000pt" viewBox="0 0 500.000000 500.000000"
 preserveAspectRatio="xMidYMid meet">

<g transform="translate(0.000000,500.000000) scale(0.100000,-0.100000)"
fill="#000000" stroke="none">
<path d="M2225 4840 c-148 -87 -630 -368 -1070 -623 l-800 -465 0 -1252 0
-1252 1073 -623 1072 -624 1068 623 1067 622 0 1254 0 1254 -1068 623 c-588
343 -1070 623 -1070 622 -1 0 -123 -72 -272 -159z m-355 -1349 l0 -191 185 0
185 0 0 -160 0 -160 -185 0 -185 0 0 -185 0 -185 -160 0 -160 0 0 185 0 185
-185 0 -185 0 0 160 0 160 183 2 182 3 3 182 2 182 80 3 c44 2 116 4 160 6
l80 3 0 -190z m1940 -346 l0 -165 -535 0 -535 0 0 165 0 165 535 0 535 0 0
-165z m-2258 -972 l158 -158 158 158 157 157 108 -107 107 -108 -157 -157
-158 -158 158 -158 157 -157 -107 -108 -108 -107 -157 157 -158 158 -160 -160
-160 -160 -107 108 -108 107 160 160 160 160 -160 160 -160 160 105 105 c58
58 107 105 110 105 2 0 76 -71 162 -157z m1815 135 c18 -13 42 -41 53 -64 36
-74 21 -145 -44 -202 -33 -29 -43 -32 -101 -32 -58 0 -68 3 -100 31 -47 41
-65 78 -65 130 0 51 39 122 78 143 43 24 139 20 179 -6z m443 -508 l0 -120
-535 0 -535 0 0 120 0 120 535 0 535 0 0 -120z m-443 -232 c18 -13 42 -41 53
-64 36 -74 21 -145 -44 -202 -33 -29 -43 -32 -101 -32 -58 0 -68 3 -100 31
-47 41 -65 78 -65 130 0 51 39 122 78 143 43 24 139 20 179 -6z"/>
</g>
</svg>
