<?xml version="1.0" standalone="no"?>
<!DOCTYPE svg PUBLIC "-//W3C//DTD SVG 20010904//EN"
 "http://www.w3.org/TR/2001/REC-SVG-20010904/DTD/svg10.dtd">
<svg version="1.0" xmlns="http://www.w3.org/2000/svg"
 width="500.000000pt" height="500.000000pt" viewBox="0 0 500.000000 500.000000"
 preserveAspectRatio="xMidYMid meet">

<g transform="translate(0.000000,500.000000) scale(0.100000,-0.100000)"
fill="#000000" stroke="none">
<path d="M2225 4840 c-148 -87 -630 -368 -1070 -623 l-800 -465 0 -1252 0
-1252 1073 -623 1072 -624 1068 623 1067 622 0 1254 0 1254 -1068 623 c-588
343 -1070 623 -1070 622 -1 0 -123 -72 -272 -159z m1510 -1221 c59 -15 129
-77 150 -133 13 -34 16 -71 13 -178 -3 -127 -5 -137 -30 -175 -15 -23 -44 -54
-64 -70 l-37 -28 -1257 -3 -1257 -2 -49 32 c-33 23 -57 50 -76 87 -26 50 -28
61 -28 177 0 135 8 166 55 222 29 35 72 61 120 73 52 12 2410 11 2460 -2z m52
-849 c39 -22 61 -44 83 -83 29 -51 30 -55 30 -187 0 -132 -1 -136 -30 -187
-22 -39 -44 -61 -83 -83 l-52 -30 -1228 0 c-1355 0 -1265 -4 -1336 63 -58 56
-71 96 -71 235 0 137 10 175 63 231 18 18 50 42 72 52 38 18 93 19 1270 19
l1230 0 52 -30z m-52 -801 c55 -14 122 -70 146 -123 27 -59 27 -283 0 -342
-26 -56 -91 -110 -154 -125 -39 -9 -323 -10 -1261 -5 l-1211 8 -42 24 c-48 27
-85 72 -102 123 -16 48 -14 264 2 304 30 71 93 123 167 138 61 12 2406 10
2455 -2z"/>
</g>
</svg>
