<?xml version="1.0" standalone="no"?>
<!DOCTYPE svg PUBLIC "-//W3C//DTD SVG 20010904//EN"
 "http://www.w3.org/TR/2001/REC-SVG-20010904/DTD/svg10.dtd">
<svg version="1.0" xmlns="http://www.w3.org/2000/svg"
 width="500.000000pt" height="500.000000pt" viewBox="0 0 500.000000 500.000000"
 preserveAspectRatio="xMidYMid meet">

<g transform="translate(0.000000,500.000000) scale(0.100000,-0.100000)"
fill="#000000" stroke="none">
<path d="M2225 4840 c-148 -87 -630 -368 -1070 -623 l-800 -465 0 -1252 0
-1252 1073 -623 1072 -624 1068 623 1067 622 0 1254 0 1254 -1068 623 c-588
343 -1070 623 -1070 622 -1 0 -123 -72 -272 -159z m-353 -1411 c84 -18 173
-65 242 -129 168 -158 204 -402 91 -635 -44 -92 -115 -189 -286 -387 l-139
-163 250 -3 250 -2 0 -135 0 -135 -525 0 -525 0 97 123 c504 634 524 661 591
797 63 130 56 260 -21 347 -40 46 -77 63 -132 63 -76 0 -128 -38 -163 -120
-11 -25 -23 -66 -27 -92 l-6 -48 -160 0 -161 0 7 43 c24 154 74 264 156 347
113 115 291 164 461 129z m924 -106 c-3 -43 -11 -168 -16 -278 -6 -110 -13
-228 -16 -262 l-6 -63 -87 0 -87 0 -12 243 c-7 133 -15 286 -19 340 l-6 97
128 0 127 0 -6 -77z m727 -448 c68 -14 155 -49 191 -77 18 -14 16 -19 -43 -97
-34 -44 -64 -81 -67 -81 -2 0 -23 12 -45 27 -26 17 -58 28 -92 31 -45 3 -56 1
-79 -22 -37 -33 -37 -78 -3 -111 14 -13 72 -42 128 -64 132 -53 193 -99 231
-175 26 -50 30 -68 30 -140 -1 -67 -6 -93 -29 -144 -108 -240 -462 -291 -673
-96 l-54 49 67 87 67 87 52 -45 c65 -57 141 -82 197 -65 79 24 106 112 51 164
-16 15 -80 50 -143 77 -177 78 -229 142 -229 287 0 141 83 260 213 304 63 22
139 23 230 4z"/>
</g>
</svg>
