<?xml version="1.0" standalone="no"?>
<!DOCTYPE svg PUBLIC "-//W3C//DTD SVG 20010904//EN"
 "http://www.w3.org/TR/2001/REC-SVG-20010904/DTD/svg10.dtd">
<svg version="1.0" xmlns="http://www.w3.org/2000/svg"
 width="500.000000pt" height="500.000000pt" viewBox="0 0 500.000000 500.000000"
 preserveAspectRatio="xMidYMid meet">

<g transform="translate(0.000000,500.000000) scale(0.100000,-0.100000)"
fill="#000000" stroke="none">
<path d="M2225 4840 c-148 -87 -630 -368 -1070 -623 l-800 -465 0 -1252 0
-1252 1073 -623 1072 -624 1068 623 1067 622 0 1254 0 1254 -1068 623 c-588
343 -1070 623 -1070 622 -1 0 -123 -72 -272 -159z m777 -1013 c76 -47 674
-500 693 -525 12 -16 21 -47 23 -82 3 -45 0 -61 -20 -90 -24 -36 -653 -515
-717 -546 -42 -20 -113 -14 -150 13 -14 11 -37 35 -49 54 -20 28 -23 44 -20
92 5 71 18 85 187 213 l124 94 -896 0 -897 0 0 160 0 160 895 2 895 3 -132
100 c-151 114 -178 147 -178 214 0 57 39 123 85 146 45 22 113 19 157 -8z
m-837 -1358 c40 -23 75 -87 75 -134 0 -69 -24 -98 -173 -210 l-141 -105 897 0
897 0 0 -165 0 -165 -897 0 -896 0 134 -100 c145 -108 179 -148 179 -214 0
-50 -35 -111 -79 -138 -43 -27 -116 -28 -157 -2 -16 10 -178 130 -361 267
-288 216 -334 254 -347 288 -9 22 -16 53 -16 70 0 68 29 95 367 349 179 135
338 252 353 262 51 30 111 30 165 -3z"/>
</g>
</svg>
